<svg id="Calque_1" data-name="Calque 1" xmlns="http://www.w3.org/2000/svg" xmlns:xlink="http://www.w3.org/1999/xlink" viewBox="0 0 171.78 41.5"><defs><style>.cls-1{fill:none;}.cls-2{clip-path:url(#clip-path);}.cls-3{fill:#dfc69d;}.cls-4{fill:#f6f6f6;}</style><clipPath id="clip-path"><rect class="cls-1" x="-21.65" y="155.15" width="1406.87" height="698.18"/></clipPath></defs><title>Logo MB Coiffure</title>
	<g class="cls-2">
		<image width="3881" height="2578" transform="translate(-21.65 -55.04) scale(0.36)" xlink:href="../Downloads/salon_mathilde/elements/22082016-DSC_9372.jpg"/>
	</g>
	<path class="cls-3" d="M43.72,32.17c-3.91-6.52-12.27,5.24-12.27,5.24-2,2.66-8,3.84-10.61,1.45a7.15,7.15,0,0,1-2.28-5.51C21,43.93,28.8,34.87,28.8,34.87L28,35c-5.38,3.55-9.8,3.12-12.89.22a8.49,8.49,0,0,1-2.58-6.81l.74.51A6.17,6.17,0,0,0,14.8,34c5.45,5.72,11.42.58,11.42.58l-1.4-.36C19.66,37.85,15,31.9,15,31.9c5.67,5.43,8.84,2,8.84,2-6.33-.51-11.27-4.78-14.51-7.39s-4.43-5.91-6.41-6.23S0,21.42,0,23s1.33,2,2.5,1,.6-2.65,0-1.23c-.56,1.05-2.27-1.8,0-1.59s1,3.91-1.18,3.77S-.81,21.83.74,20.38,5,20,7.51,22.92a25.94,25.94,0,0,0,4.42,4.2,25.65,25.65,0,0,1-6-8c-1.33-3-3.81-4.81-5.08-3a3.31,3.31,0,0,0,.66,2.75S-.2,17.67.65,16c2-2.79,3.92.06,8.19,5.13s7.44,4.93,8.76,5.07-7.81-2.17-8.4-8,3.39-7,3.39-7a5.55,5.55,0,0,0-2.28,7c1.77,4.71,7.07,5.58,10,5.58s-2.28,0-6.41-3S12,11.11,15.47,11.69s3.31,4,2.28,4.86A1.82,1.82,0,0,1,15,16.4c-.81-.87-.28-2.53,1.47-1.59,1.09.9-.15,1.81-.15,1.81,4.81-1.15-1.39-8.49-3.6-2-1.87,5.62,6.32,6.75,4,5.81s-4-5.07-7.88-5.15-5.3,3.91-5.3,3.91c2.14-6.59,7.29-4.42,11.34-2S20.18,20,22.9,19.8s-2.65-.22-3.09-4.06a8.77,8.77,0,0,1,1.77-6.38c-4.35,9,2.28,9.86,3.53,9.35s-2.21.43-3.24-2.39a5.65,5.65,0,0,1,.22-4.78c-1.47,9.35,7.44,4.06,7.44,4.06-6.19.94-9.21-.14-10.53-3.12s-1.33-5.29.81-7.2,3,1.62,3,1.62c-1-3.19-4.2-1-4.2,1,.07,6.52,4.57,7.83,8.32,7.25s4.57-1.81,4.57-1.81C22.09,16.25,20,10.15,20,10.15s1.33,3.64,7,3.78,10.53-6,17.6-7.32S55.05,9.8,55.05,9.8A30.57,30.57,0,0,1,55.93,13c.22,1.23.59,1.34.44,1.59s-.37.22-.15,1.56,1.62,2.72,1.92,3.27c.06.61,0,.68-.78,1.16s-.43.65-.14,1.14.07.64-.3.89.33.33.29.91-.88-.22-.88,1.23S55.6,26.5,53.5,26.4s-3.35-.07-3.35-.07a18.18,18.18,0,0,0-1.84,2.61c-.88,1.52-3.84,5.31.45,12.57Z"/>
	<path class="cls-4" d="M31.45,28.69a21.92,21.92,0,0,0,0-13.55c-.23-.74-2.19-1.79-2.19-7.59,0-2.68,1.59-7.29,7.56-7.51s8.84.37,11.34,2.31,2,6,2.57,6.62,0,.82,0,1.93,0,1,.91,2.08,1.51,2.19.3,2.71-1,.33-.87,1,.42.89-.11,1.23,0,.45.11.67-.6.56-.79,1,.6,2.31-.76,3-4.08.33-5.25.45A2.15,2.15,0,0,0,42,24.94s1.38,2.57,2.66,4.64c.83,2.15-.91-2.52-4-3-5.94-.81-13.39,9.7-12.48,7Z"/>
	<path class="cls-4" d="M70.46,18.14q.07-.17.17-.48t.19-.68q.09-.37.16-.77a4.68,4.68,0,0,0,.07-.75A2.57,2.57,0,0,0,71,15a1,1,0,0,0-.12-.35.68.68,0,0,0-.22-.23.63.63,0,0,0-.34-.09,1.43,1.43,0,0,0-.72.22,3.22,3.22,0,0,0-.78.68A7.73,7.73,0,0,0,68,16.42a14.15,14.15,0,0,0-.81,1.67L67,17.95a13.34,13.34,0,0,1,.87-1.8,6.55,6.55,0,0,1,.89-1.21,3.12,3.12,0,0,1,.9-.68,2.09,2.09,0,0,1,.89-.21,1.42,1.42,0,0,1,.71.16,1.2,1.2,0,0,1,.45.45,2,2,0,0,1,.23.66,4.72,4.72,0,0,1,.07.81,4.61,4.61,0,0,1,0,.5q0,.28-.09.57.45-.77.86-1.37a6.82,6.82,0,0,1,.82-1,3.17,3.17,0,0,1,.82-.6,2,2,0,0,1,.89-.2,2.37,2.37,0,0,1,.82.14,2,2,0,0,1,.68.41,1.91,1.91,0,0,1,.46.68,2.42,2.42,0,0,1,.17.93,3.15,3.15,0,0,1,0,.5,3.62,3.62,0,0,1-.12.49q.45-.77.86-1.36a6.87,6.87,0,0,1,.81-1,3.17,3.17,0,0,1,.82-.6,2,2,0,0,1,.89-.2,2.28,2.28,0,0,1,.8.14,1.88,1.88,0,0,1,1.12,1.09,2.42,2.42,0,0,1,.17.93,4.6,4.6,0,0,1-.21,1.32q-.22.71-.54,1.5t-.69,1.61q-.37.82-.69,1.63a15.78,15.78,0,0,0-.54,1.59,5.5,5.5,0,0,0-.21,1.46,1.45,1.45,0,0,0,.25.89.94.94,0,0,0,.8.34,2.16,2.16,0,0,0,1-.24,3.66,3.66,0,0,0,.95-.72,8.8,8.8,0,0,0,1-1.2q.49-.72,1-1.67l.41-.72.21.15-.41.72q-.59,1-1.11,1.8a8.58,8.58,0,0,1-1,1.27,3.76,3.76,0,0,1-1,.75,2.68,2.68,0,0,1-1.14.25,2.86,2.86,0,0,1-.93-.13,1.59,1.59,0,0,1-.62-.38,1.45,1.45,0,0,1-.35-.59,2.57,2.57,0,0,1-.11-.78,5.6,5.6,0,0,1,.13-1.14,11.85,11.85,0,0,1,.33-1.24q.21-.64.47-1.3t.54-1.31l.54-1.27q.26-.62.47-1.17t.33-1a3.34,3.34,0,0,0,.13-.84,1.37,1.37,0,0,0-.32-1,1.11,1.11,0,0,0-.83-.32,1.61,1.61,0,0,0-.85.25,3.65,3.65,0,0,0-.83.74,10.52,10.52,0,0,0-.88,1.2q-.46.71-1,1.64l-.15.27-2.93,8.09H72.69L75,20.12l.47-1.3q.23-.63.41-1.2t.29-1a3.71,3.71,0,0,0,.11-.84,1.46,1.46,0,0,0-.34-1,1.14,1.14,0,0,0-.88-.37,1.54,1.54,0,0,0-.85.27,3.9,3.9,0,0,0-.83.77,10.53,10.53,0,0,0-.87,1.22q-.45.72-1,1.64l-3.05,8.38H67.37Z"/>
	<path class="cls-4" d="M91.14,25.66a2,2,0,0,0,.77.65,2.28,2.28,0,0,0,1,.23,2.64,2.64,0,0,0,1.28-.33,3.46,3.46,0,0,0,1.05-.89A4.51,4.51,0,0,0,96,24a4.65,4.65,0,0,0,.27-1.58,2.86,2.86,0,0,0-.43-1.65A2.12,2.12,0,0,0,94.56,20h-.11a.36.36,0,0,1-.15,0,.08.08,0,0,1-.06-.07s0-.05.06-.07a.33.33,0,0,1,.16,0,.4.4,0,0,1,.21.06,3.62,3.62,0,0,0,1.18-.49,4,4,0,0,0,.95-.84,4,4,0,0,0,.63-1.07,3.29,3.29,0,0,0,.23-1.21,1.87,1.87,0,0,0-.31-1.13,1.72,1.72,0,0,0-1-.61,2.87,2.87,0,0,0-.43.22,3.93,3.93,0,0,0-.43.31,4.28,4.28,0,0,0-.39.36,3.55,3.55,0,0,0-.31.38l-.14.23c0,.09-.1.2-.16.34l-.22.54-.31.81-.43,1.17L93,20.44a23.32,23.32,0,0,1-1.26,2.89,10.57,10.57,0,0,1-1.35,2,4.92,4.92,0,0,1-1.48,1.19,3.59,3.59,0,0,1-1.62.39q-2.17,0-2.17-2.5a7.07,7.07,0,0,1,.1-1.16,9.44,9.44,0,0,1,.3-1.24A11.59,11.59,0,0,1,86,20.75a12.28,12.28,0,0,1,2.35-3.51,11.28,11.28,0,0,1,2.1-1.72,9.92,9.92,0,0,1,2.35-1.09,8.29,8.29,0,0,1,2.47-.38,5.92,5.92,0,0,1,1.46.16,3.3,3.3,0,0,1,1.09.48,2.12,2.12,0,0,1,.68.77,2.2,2.2,0,0,1,.23,1,2.8,2.8,0,0,1-.31,1.28,3.53,3.53,0,0,1-.84,1.07,4.42,4.42,0,0,1-2.75,1.06,3.7,3.7,0,0,1,2,1,2.6,2.6,0,0,1,.65,1.82,3.68,3.68,0,0,1-.16,1.09,4.15,4.15,0,0,1-.46,1,4.3,4.3,0,0,1-.71.85,4.8,4.8,0,0,1-.91.67,4.55,4.55,0,0,1-1.06.43,4.43,4.43,0,0,1-1.16.15,3.31,3.31,0,0,1-.62-.05,2.13,2.13,0,0,1-1-.49,3.42,3.42,0,0,1-.44-.46Zm2-8.64a7.14,7.14,0,0,1,.7-1.06,5.27,5.27,0,0,1,.72-.74,4.14,4.14,0,0,1,.73-.49,5.1,5.1,0,0,1,.75-.32l-.39,0-.44,0a7.62,7.62,0,0,0-2.35.38,9.72,9.72,0,0,0-2.26,1.07,11.21,11.21,0,0,0-2,1.66A11.68,11.68,0,0,0,87,19.61,10.83,10.83,0,0,0,85.89,22a8.32,8.32,0,0,0-.37,2.39,4.07,4.07,0,0,0,.1,1,1.63,1.63,0,0,0,.3.65,1.19,1.19,0,0,0,.53.37,2.32,2.32,0,0,0,.79.12,2.8,2.8,0,0,0,.75-.09,2,2,0,0,0,.65-.32,3.31,3.31,0,0,0,.61-.59,6.46,6.46,0,0,0,.6-.91q.3-.55.64-1.29t.73-1.71q.3-.74.56-1.4L92.26,19q.23-.57.45-1.07T93.16,17Z"/>
	<path class="cls-4" d="M109.94,26.93a4.17,4.17,0,0,1-1.55-.27,3,3,0,0,1-1.14-.78,3.44,3.44,0,0,1-.71-1.26,5.41,5.41,0,0,1-.25-1.7,8.79,8.79,0,0,1,.07-1.11,9.37,9.37,0,0,1,.23-1.19,10.62,10.62,0,0,1,.63-1.81,9.81,9.81,0,0,1,.9-1.58,9,9,0,0,1,1.13-1.32,7.5,7.5,0,0,1,1.29-1,6.13,6.13,0,0,1,1.41-.64,5.11,5.11,0,0,1,1.49-.22,3.19,3.19,0,0,1,.73.09,2,2,0,0,1,.66.29,1.52,1.52,0,0,1,.48.53,1.69,1.69,0,0,1,.18.82,2.45,2.45,0,0,1-.13.81,2.5,2.5,0,0,1-.36.68,3.42,3.42,0,0,1-.54.57,4.48,4.48,0,0,1-.66.46l-.14-.2a3.33,3.33,0,0,0,.93-1.12,2.89,2.89,0,0,0,.3-1.29,1.39,1.39,0,0,0-.32-1,1.3,1.3,0,0,0-.95-.32,3.25,3.25,0,0,0-1.62.47,6.65,6.65,0,0,0-1.58,1.3,10.57,10.57,0,0,0-1.39,1.95,12.86,12.86,0,0,0-1,2.42,12.5,12.5,0,0,0-.41,1.64,8.85,8.85,0,0,0-.14,1.51q0,2.9,2.6,2.9a4.45,4.45,0,0,0,2.73-.94,9.34,9.34,0,0,0,2.36-2.89l.41-.72.21.15-.41.72a13.52,13.52,0,0,1-1.21,1.81,7.32,7.32,0,0,1-1.28,1.27,4.94,4.94,0,0,1-1.39.75A4.77,4.77,0,0,1,109.94,26.93Z"/>
	<path class="cls-4" d="M115.5,22.08a7.5,7.5,0,0,1,.8-1.94,7.15,7.15,0,0,1,1.21-1.54,5.42,5.42,0,0,1,1.48-1,3.84,3.84,0,0,1,1.61-.37,2.47,2.47,0,0,1,1.11.22,2,2,0,0,1,.72.6,2.4,2.4,0,0,1,.39.87,4.44,4.44,0,0,1,.12,1,6.19,6.19,0,0,1-.11,1.17,8.59,8.59,0,0,1-.29,1.12,6.46,6.46,0,0,1-.25.65q-.14.31-.3.61a1,1,0,0,0,.32.42,1,1,0,0,0,.59.16,1.74,1.74,0,0,0,.47-.07,1.92,1.92,0,0,0,.5-.23,2.66,2.66,0,0,0,.5-.42,3.14,3.14,0,0,0,.46-.63l.41-.72.21.15-.41.72a3.7,3.7,0,0,1-.61.82,2.75,2.75,0,0,1-.6.46,1.77,1.77,0,0,1-.54.2,2.65,2.65,0,0,1-.43,0,2,2,0,0,1-.66-.1,1.91,1.91,0,0,1-.52-.26,7.47,7.47,0,0,1-.86,1.13,6,6,0,0,1-1,.87,4.57,4.57,0,0,1-1.08.55,3.36,3.36,0,0,1-1.11.2,2.39,2.39,0,0,1-1-.2,2,2,0,0,1-.75-.57,2.65,2.65,0,0,1-.47-.92,4.22,4.22,0,0,1-.16-1.22,6.41,6.41,0,0,1,.06-.88A7.73,7.73,0,0,1,115.5,22.08Zm2.25,4.3a2.24,2.24,0,0,0,.92-.21,3.8,3.8,0,0,0,.91-.59,6.07,6.07,0,0,0,.87-.93,8.48,8.48,0,0,0,.77-1.21,1.5,1.5,0,0,1-.14-.37,1.78,1.78,0,0,1,0-.39,1.64,1.64,0,0,1,.06-.45,1.43,1.43,0,0,1,.19-.41,1.54,1.54,0,0,1,.33-.35,1.62,1.62,0,0,1,.46-.25q.12-.44.2-.91a5.75,5.75,0,0,0,.08-.93,3.52,3.52,0,0,0-.07-.71,1.65,1.65,0,0,0-.24-.59,1.21,1.21,0,0,0-.45-.4,1.52,1.52,0,0,0-.71-.15,2.51,2.51,0,0,0-1.21.32,4.33,4.33,0,0,0-1.13.91,7,7,0,0,0-1,1.41,9.44,9.44,0,0,0-.73,1.81,10.52,10.52,0,0,0-.3,1.33,7.85,7.85,0,0,0-.11,1.21Q116.44,26.38,117.75,26.38Z"/>
	<path class="cls-4" d="M126.91,17.36h1.16l-2,5.47-.22.62q-.11.32-.19.63t-.13.59a3,3,0,0,0-.05.53,1.24,1.24,0,0,0,.29.86,1.13,1.13,0,0,0,.89.32,2.37,2.37,0,0,0,1-.23,3.66,3.66,0,0,0,1-.68,7.62,7.62,0,0,0,1-1.15q.48-.69,1-1.61L131,22l.21.15-.41.72q-.57,1-1.09,1.75a7.69,7.69,0,0,1-1,1.22,3.82,3.82,0,0,1-1.06.71,2.85,2.85,0,0,1-1.15.23,2.26,2.26,0,0,1-.84-.14,1.64,1.64,0,0,1-.61-.41,1.74,1.74,0,0,1-.37-.64,2.64,2.64,0,0,1-.12-.84,4.55,4.55,0,0,1,.1-.89,7.61,7.61,0,0,1,.29-1Zm.63-2a.65.65,0,0,1,.19-.47.63.63,0,0,1,.46-.2.65.65,0,0,1,.66.66.65.65,0,0,1-.05.25.61.61,0,0,1-.14.21.68.68,0,0,1-.21.14.67.67,0,0,1-.26.05.63.63,0,0,1-.46-.18A.61.61,0,0,1,127.54,15.32Z"/>
	<path class="cls-4" d="M130.42,17.36h2.27l.32-.87a6,6,0,0,1,1.48-2.41,2.91,2.91,0,0,1,2-.84,2.24,2.24,0,0,1,.65.09,1.55,1.55,0,0,1,.51.25A1.24,1.24,0,0,1,138,14a1,1,0,0,1,.12.49.84.84,0,0,1-.19.58.66.66,0,0,1-.52.21.53.53,0,0,1-.57-.57.6.6,0,0,1,.13-.41.44.44,0,0,1,.35-.16l.16,0,0,0h0s.07,0,.07-.09a.26.26,0,0,0-.1-.2.83.83,0,0,0-.25-.14,1.77,1.77,0,0,0-.34-.09,2.16,2.16,0,0,0-.36,0,1.57,1.57,0,0,0-.7.16,1.92,1.92,0,0,0-.61.5,4.54,4.54,0,0,0-.56.88,11.47,11.47,0,0,0-.55,1.29l-.34.94h2.36v.31h-2.47L129,30.74h-1.16l4.75-13.06h-2.16Z"/>
	<path class="cls-4" d="M136.21,17.36h2.27l.32-.87a6,6,0,0,1,1.48-2.41,2.91,2.91,0,0,1,2-.84,2.24,2.24,0,0,1,.65.09,1.55,1.55,0,0,1,.51.25,1.24,1.24,0,0,1,.33.39,1,1,0,0,1,.12.49.84.84,0,0,1-.19.58.66.66,0,0,1-.52.21.53.53,0,0,1-.57-.57.6.6,0,0,1,.13-.41.44.44,0,0,1,.35-.16l.16,0,0,0h0s.07,0,.07-.09a.26.26,0,0,0-.1-.2.83.83,0,0,0-.25-.14,1.77,1.77,0,0,0-.34-.09,2.16,2.16,0,0,0-.36,0,1.57,1.57,0,0,0-.7.16,1.92,1.92,0,0,0-.61.5,4.54,4.54,0,0,0-.56.88,11.47,11.47,0,0,0-.55,1.29l-.34.94H142v.31h-2.47l-4.75,13.06h-1.16l4.75-13.06h-2.16Z"/>
	<path class="cls-4" d="M144.27,17.36h1.16l-2,5.47-.22.62q-.11.32-.19.63t-.13.59a3,3,0,0,0-.05.53,1.23,1.23,0,0,0,.29.86,1.13,1.13,0,0,0,.88.32,2.4,2.4,0,0,0,1-.23,3.63,3.63,0,0,0,1-.68,7.7,7.7,0,0,0,1-1.14,17.83,17.83,0,0,0,1-1.62l.38-.69,1.7-4.66h1.16l-2,5.47-.22.62q-.11.32-.19.63t-.13.59a3,3,0,0,0-.05.53,1.24,1.24,0,0,0,.29.86,1.13,1.13,0,0,0,.89.32,2.37,2.37,0,0,0,1-.23,3.66,3.66,0,0,0,1-.68,7.62,7.62,0,0,0,1-1.15q.48-.69,1-1.61l.41-.72.2.15-.4.72a19.42,19.42,0,0,1-1.08,1.75,7.69,7.69,0,0,1-1,1.22,3.72,3.72,0,0,1-1.06.71,2.93,2.93,0,0,1-1.15.23,2.26,2.26,0,0,1-.84-.14,1.64,1.64,0,0,1-.61-.41,1.73,1.73,0,0,1-.37-.64,2.63,2.63,0,0,1-.12-.84,4.34,4.34,0,0,1,.05-.66,5.61,5.61,0,0,1,.16-.73,17,17,0,0,1-1,1.53,7,7,0,0,1-1,1.07,3.48,3.48,0,0,1-1,.63,2.91,2.91,0,0,1-1.08.2,2.26,2.26,0,0,1-.84-.14,1.64,1.64,0,0,1-.61-.41,1.74,1.74,0,0,1-.37-.64,2.64,2.64,0,0,1-.12-.84,4.55,4.55,0,0,1,.1-.89,7.61,7.61,0,0,1,.29-1Z"/>
	<path class="cls-4" d="M160,17.92a.35.35,0,0,0-.16-.25.73.73,0,0,0-.46-.13,1.49,1.49,0,0,0-.68.19,3.5,3.5,0,0,0-.84.68,10.84,10.84,0,0,0-1.05,1.32q-.58.84-1.32,2.13l-.39.69-1.48,4.08h-1.16l3.38-9.26H157l-1.37,3.75q.64-1.1,1.17-1.85a9.79,9.79,0,0,1,1-1.2,3.29,3.29,0,0,1,.85-.65,1.77,1.77,0,0,1,.78-.2,1.07,1.07,0,0,1,.81.3,1.1,1.1,0,0,1,.29.8,1.45,1.45,0,0,1-.05.39,1,1,0,0,1-.15.32.73.73,0,0,1-.24.21.63.63,0,0,1-.31.08.79.79,0,0,1-.25,0,.6.6,0,0,1-.21-.12.64.64,0,0,1-.15-.2.6.6,0,0,1-.06-.27.8.8,0,0,1,0-.25.72.72,0,0,1,.12-.23.65.65,0,0,1,.19-.16.48.48,0,0,1,.24-.06l.16,0,0,0h0S160,18,160,17.92Z"/>
	<path class="cls-4" d="M164.1,26.77a3,3,0,0,1-2.18-.74,2.92,2.92,0,0,1-.77-2.2,6.48,6.48,0,0,1,.06-.84,7.25,7.25,0,0,1,.18-.91,8.07,8.07,0,0,1,.79-1.94,7,7,0,0,1,1.18-1.54,5.37,5.37,0,0,1,1.43-1,3.53,3.53,0,0,1,1.54-.37,1.89,1.89,0,0,1,1.23.37,1.26,1.26,0,0,1,.45,1,1.91,1.91,0,0,1-.15.73,2.44,2.44,0,0,1-.43.68,3.79,3.79,0,0,1-.68.6,4.55,4.55,0,0,1-.89.48,6.19,6.19,0,0,1-1.34.39,9.74,9.74,0,0,1-1.67.13,8.63,8.63,0,0,0-.36,1.32,7.51,7.51,0,0,0-.13,1.39,2.22,2.22,0,0,0,.46,1.57,1.91,1.91,0,0,0,1.44.48,3.94,3.94,0,0,0,1.56-.32,5.72,5.72,0,0,0,1.38-.83,7.6,7.6,0,0,0,1.16-1.18,10.64,10.64,0,0,0,.91-1.35l.41-.72.21.15-.41.72a12.08,12.08,0,0,1-1.06,1.57,7.28,7.28,0,0,1-1.25,1.24,5.67,5.67,0,0,1-1.45.81A4.56,4.56,0,0,1,164.1,26.77Zm2.45-9.24a2,2,0,0,0-1,.29,4.16,4.16,0,0,0-1,.8,7.07,7.07,0,0,0-.89,1.21,9.23,9.23,0,0,0-.72,1.52,7.4,7.4,0,0,0,1.47-.15,5.23,5.23,0,0,0,1.06-.35,3.59,3.59,0,0,0,.7-.43,3.35,3.35,0,0,0,.6-.6,3.07,3.07,0,0,0,.42-.73,2.13,2.13,0,0,0,.16-.81.87.87,0,0,0-.06-.35.62.62,0,0,0-.17-.23.68.68,0,0,0-.26-.13A1.27,1.27,0,0,0,166.55,17.53Z"/>
</svg>