<?xml version="1.0" standalone="no"?>
<!DOCTYPE svg PUBLIC "-//W3C//DTD SVG 20010904//EN"
 "http://www.w3.org/TR/2001/REC-SVG-20010904/DTD/svg10.dtd">
<svg version="1.0" xmlns="http://www.w3.org/2000/svg"
 width="401.000000pt" height="401.000000pt" viewBox="0 0 401.000000 401.000000"
 preserveAspectRatio="xMidYMid meet">
<metadata>
Created by potrace 1.11, written by Peter Selinger 2001-2013
</metadata>
<g transform="translate(0.000000,401.000000) scale(0.100000,-0.100000)"
fill="#000000" stroke="none">
<path d="M1887 4004 c-1 -1 -39 -4 -85 -8 -46 -3 -87 -8 -90 -10 -4 -2 -29 -7
-57 -10 -218 -29 -523 -149 -745 -294 -461 -301 -767 -758 -876 -1308 -25
-123 -28 -162 -28 -339 -1 -223 5 -297 34 -435 84 -394 260 -721 540 -1000
135 -136 170 -165 313 -260 222 -148 462 -248 722 -299 232 -45 521 -48 740
-6 530 102 977 389 1287 825 108 153 205 349 266 540 29 91 36 119 48 185 3
17 9 48 14 70 18 83 25 175 25 350 0 221 -8 294 -52 475 -88 365 -285 708
-555 966 -289 276 -670 470 -1038 529 -25 4 -52 9 -60 10 -77 14 -392 29 -403
19z"/>
</g>
</svg>
